<svg width="98" height="98" viewBox="0 0 98 98" fill="none" xmlns="http://www.w3.org/2000/svg">
<g clip-path="url(#clip0_2986_157)">
<path d="M49 98C76.062 98 98 76.062 98 49C98 21.938 76.062 0 49 0C21.938 0 0 21.938 0 49C0 76.062 21.938 98 49 98Z" fill="#F2F2F2"/>
<path d="M47.4471 20.9015C46.8824 21.1666 46.3062 21.7543 46.0757 22.319C45.7876 22.9989 45.8337 24.1052 46.191 24.7967L46.4791 25.3959L45.5226 27.7468C44.9925 29.0375 44.543 30.1208 44.5085 30.1438C44.4739 30.1669 43.114 29.2565 41.4891 28.1156L38.5275 26.0413L38.5159 25.2807C38.5159 24.716 38.4468 24.3933 38.2163 23.9324C37.2483 21.9848 34.4134 21.9387 33.3186 23.8517C33.042 24.3357 32.9844 24.5547 32.9844 25.2115C32.9844 26.1219 33.1918 26.6866 33.7104 27.2398C34.1137 27.6546 34.8513 28.0465 35.2546 28.058C35.3929 28.058 35.5312 28.1502 35.5658 28.2539C35.6003 28.3691 36.2803 30.7661 37.0754 33.578C37.8706 36.4014 38.6081 38.7984 38.7118 38.9137C38.8847 39.1096 39.3802 39.1211 48.6571 39.1211C57.934 39.1211 58.4296 39.1096 58.6024 38.9137C58.7061 38.7984 59.4437 36.4014 60.2388 33.578C61.034 30.7661 61.7139 28.3691 61.7485 28.2539C61.7831 28.1502 61.9213 28.058 62.0596 28.058C62.463 28.0465 63.2005 27.6546 63.6039 27.2398C64.1109 26.6981 64.3299 26.1219 64.3299 25.2922C64.3299 23.6327 63.2236 22.5264 61.5641 22.5264C59.8931 22.5264 58.7983 23.6327 58.7983 25.3152L58.7868 26.0413L55.8943 28.058C54.3155 29.1643 52.9556 30.0862 52.8749 30.1093C52.8058 30.1208 52.3218 29.0721 51.7917 27.7468L50.8467 25.3498L51.1348 24.7851C51.4921 24.0706 51.5266 22.9413 51.204 22.2383C50.9735 21.7082 50.2935 21.0744 49.7404 20.8439C49.1872 20.6134 48.0003 20.648 47.4471 20.9015ZM49.2333 22.8721C49.3601 22.9989 49.4638 23.2524 49.4638 23.4483C49.4638 23.6443 49.3601 23.8978 49.2333 24.0245C49.1066 24.1513 48.853 24.255 48.6571 24.255C48.4612 24.255 48.2077 24.1513 48.0809 24.0245C47.9542 23.8978 47.8504 23.6443 47.8504 23.4483C47.8504 23.2524 47.9542 22.9989 48.0809 22.8721C48.2077 22.7454 48.4612 22.6417 48.6571 22.6417C48.853 22.6417 49.1066 22.7454 49.2333 22.8721ZM36.3264 24.716C36.4531 24.8428 36.5568 25.0963 36.5568 25.2922C36.5568 25.4881 36.4531 25.7416 36.3264 25.8684C36.1996 25.9952 35.9461 26.0989 35.7502 26.0989C35.5542 26.0989 35.3007 25.9952 35.174 25.8684C35.0472 25.7416 34.9435 25.4881 34.9435 25.2922C34.9435 25.0963 35.0472 24.8428 35.174 24.716C35.3007 24.5892 35.5542 24.4855 35.7502 24.4855C35.9461 24.4855 36.1996 24.5892 36.3264 24.716ZM62.1403 24.716C62.2671 24.8428 62.3708 25.0963 62.3708 25.2922C62.3708 25.4881 62.2671 25.7416 62.1403 25.8684C62.0135 25.9952 61.76 26.0989 61.5641 26.0989C61.3682 26.0989 61.1147 25.9952 60.9879 25.8684C60.8611 25.7416 60.7574 25.4881 60.7574 25.2922C60.7574 25.0963 60.8611 24.8428 60.9879 24.716C61.1147 24.5892 61.3682 24.4855 61.5641 24.4855C61.76 24.4855 62.0135 24.5892 62.1403 24.716ZM50.3051 29.3487C51.6419 32.7137 51.7686 32.8866 52.4946 32.6907C52.7251 32.6215 54.4768 31.4806 56.3898 30.1323C58.3028 28.7955 59.8355 27.7699 59.8124 27.8505C59.7779 27.9312 59.1556 30.0862 58.4411 32.633L57.1273 37.2772H48.6571H40.1869L38.8386 32.5178C38.1011 29.9134 37.5133 27.7583 37.5133 27.7583C37.5249 27.7468 39.1037 28.8416 41.0282 30.1899C42.9527 31.5382 44.6583 32.6676 44.8196 32.7022C45.1769 32.7713 45.5571 32.6446 45.73 32.4256C45.7992 32.3334 46.3869 30.9275 47.0322 29.2911L48.2192 26.3294H48.6571H49.095L50.3051 29.3487Z" fill="black"/>
<path d="M46.6377 41.1877C44.0678 41.9368 42.1203 43.9304 41.4634 46.4657C41.2329 47.3531 41.2329 49.2085 41.4519 50.1765C42.0511 52.7003 44.2983 54.9475 46.8221 55.5467C47.7671 55.7657 49.5418 55.7657 50.4867 55.5467C53.0105 54.9475 55.2577 52.7003 55.857 50.1765C56.0759 49.2085 56.0759 47.3531 55.8454 46.4657C55.1771 43.8728 53.0336 41.7409 50.4752 41.1416C49.4726 40.9111 47.5135 40.9342 46.6377 41.1877ZM50.2563 43.1468C51.5239 43.5386 52.7224 44.5182 53.4023 45.6936C54.3473 47.3185 54.2897 49.6233 53.2756 51.2137C52.8261 51.9051 51.8351 52.8501 51.2358 53.1612C49.657 53.9564 47.6403 53.9564 46.0615 53.1612C45.4277 52.827 44.3329 51.7553 43.9411 51.0639C43.0307 49.4735 42.9961 47.4107 43.8374 45.7512C44.1485 45.152 45.2433 44.0111 45.8656 43.6539C47.0987 42.9278 48.8849 42.7204 50.2563 43.1468Z" fill="black"/>
<path d="M30.9334 44.9532C28.9283 45.6331 27.5454 46.993 26.8539 48.9636C26.5773 49.7588 26.5312 50.0814 26.5312 51.1071C26.5312 52.997 27.1075 54.4145 28.3866 55.7052C30.4955 57.8256 33.9873 58.1944 36.4996 56.581C37.2947 56.0739 37.9516 55.4171 38.4587 54.6219C39.7839 52.5591 39.7839 49.655 38.4587 47.5807C37.6405 46.3131 36.3613 45.345 34.8977 44.8956C33.7338 44.5383 32.0628 44.5614 30.9334 44.9532ZM34.9554 47.0391C35.8773 47.4885 36.684 48.3182 37.1104 49.2402C37.3869 49.8164 37.4215 50.0353 37.4215 51.1071C37.4215 52.1788 37.3869 52.3978 37.1104 52.974C35.497 56.4312 30.5993 56.5003 28.9167 53.0777C28.571 52.3747 28.548 52.248 28.548 51.1071C28.548 50.0353 28.5825 49.8164 28.8591 49.2402C29.4007 48.0878 30.4379 47.1658 31.6364 46.774C31.936 46.6818 32.5238 46.6242 33.1576 46.6472C34.068 46.6703 34.2985 46.7164 34.9554 47.0391Z" fill="black"/>
<path d="M62.2772 44.9532C60.272 45.6331 58.8891 46.993 58.1977 48.9636C57.9211 49.7588 57.875 50.0814 57.875 51.1071C57.875 52.997 58.4512 54.4145 59.7304 55.7052C61.8393 57.8256 65.3311 58.1944 67.8433 56.581C69.111 55.7743 69.9983 54.6219 70.4939 53.1468C70.9087 51.9138 70.9087 50.3004 70.4939 49.0673C69.8024 47.016 68.2812 45.5179 66.2415 44.8956C65.0776 44.5383 63.4066 44.5614 62.2772 44.9532ZM66.2991 47.0391C67.221 47.4885 68.0277 48.3182 68.4541 49.2402C68.7307 49.8164 68.7653 50.0353 68.7653 51.1071C68.7653 52.1788 68.7307 52.3978 68.4541 52.974C66.8407 56.4312 61.943 56.5003 60.2605 53.0777C59.9148 52.3747 59.8917 52.248 59.8917 51.1071C59.8917 50.0353 59.9263 49.8164 60.2029 49.2402C60.7445 48.0878 61.7817 47.1658 62.9802 46.774C63.2798 46.6818 63.8675 46.6242 64.5013 46.6472C65.4117 46.6703 65.6422 46.7164 66.2991 47.0391Z" fill="black"/>
<path d="M41.6742 55.9366C40.7753 56.1555 39.2426 56.847 38.6664 57.2849C38.3668 57.5154 38.1709 57.5615 37.514 57.5615C36.7419 57.5615 36.7073 57.573 34.9096 58.5986C33.907 59.1748 33.0427 59.6358 32.9966 59.6358C32.939 59.6358 32.0746 59.1748 31.072 58.5986C29.2512 57.573 29.2397 57.5615 28.433 57.5615C27.3843 57.5615 26.4739 57.792 25.3215 58.3682C23.7082 59.1633 22.6018 60.2696 21.8067 61.883C21.0346 63.4388 21 63.7038 21 68.0138C21 71.7015 21.0115 71.8629 21.2305 72.0818C21.461 72.3123 21.6108 72.3123 28.1449 72.3123H34.8289V73.9257C34.8289 75.3892 34.8519 75.5621 35.0594 75.7695C35.2899 76 35.4397 76 48.6578 76C61.8759 76 62.0257 76 62.2562 75.7695C62.4637 75.5621 62.4867 75.3892 62.4867 73.9257V72.3123H69.1707C75.7048 72.3123 75.8546 72.3123 76.0851 72.0818C76.3041 71.8629 76.3156 71.7015 76.3156 68.0138C76.3156 63.7729 76.281 63.4733 75.5781 61.9982C74.3219 59.3592 71.6138 57.5615 68.8826 57.5615C68.0759 57.5615 68.0644 57.573 66.2551 58.5986C65.2525 59.1748 64.3882 59.6358 64.3421 59.6358C64.2845 59.6358 63.4201 59.1748 62.4176 58.5986C60.6198 57.5845 60.5737 57.5615 59.8246 57.5615C59.1217 57.5615 58.9949 57.5269 58.3611 57.089C57.0473 56.2247 55.434 55.7291 53.9013 55.7176H53.0946L50.928 57.2157C49.7295 58.0455 48.7154 58.7139 48.6578 58.7139C48.6002 58.7139 47.5861 58.034 46.3991 57.2157L44.2326 55.7176L43.3682 55.7291C42.8842 55.7291 42.1236 55.8213 41.6742 55.9366ZM45.9151 59.2901C47.8742 60.6384 48.3121 60.9035 48.6693 60.9035C49.015 60.9035 49.476 60.6384 51.4351 59.2901C54.0165 57.5154 53.9819 57.5269 55.2726 57.8611C57.1626 58.3451 58.9834 59.8432 59.8131 61.5949C60.0666 62.1365 60.3432 62.828 60.4124 63.1506C60.5161 63.5425 60.5737 65.4209 60.6083 68.9357L60.6659 74.1561H48.6578H36.6497L36.7073 68.8896C36.7649 63.0469 36.7534 63.1046 37.5486 61.4797C38.5281 59.4745 41.0865 57.7343 43.0917 57.6882C43.5411 57.6767 43.7831 57.815 45.9151 59.2901ZM30.6918 60.673C31.8211 61.3068 32.8468 61.8254 32.9966 61.8254C33.1349 61.8254 33.8033 61.5142 34.4832 61.1339C35.1631 60.7536 35.7508 60.4425 35.7969 60.4425C35.8315 60.4425 35.7739 60.6384 35.6471 60.8689C35.5319 61.1109 35.3129 61.664 35.1631 62.1135C34.9096 62.8741 34.898 63.1161 34.8519 66.6885L34.8174 70.4684H28.8133H22.8093L22.8784 67.4376C22.936 64.1532 23.0052 63.7153 23.6621 62.5629C24.3996 61.2607 25.5405 60.3042 26.9349 59.8087C28.2602 59.3362 28.3754 59.3707 30.6918 60.673ZM70.3807 59.8087C72.19 60.454 73.4807 61.7678 74.1375 63.6692C74.368 64.3492 74.3911 64.6949 74.4487 67.4376L74.5063 70.4684H68.4907H62.4867V66.919C62.4867 63.0469 62.406 62.3901 61.7376 60.938L61.4495 60.3042L61.9451 60.5923C63.3856 61.4336 64.2384 61.8254 64.5149 61.7562C64.6648 61.7101 65.6673 61.2031 66.7276 60.6038C68.9171 59.3823 69.067 59.3477 70.3807 59.8087Z" fill="black"/>
</g>
<defs>
<clipPath id="clip0_2986_157">
<rect width="98" height="98" fill="white"/>
</clipPath>
</defs>
</svg>
