<svg width="98" height="98" viewBox="0 0 98 98" fill="none" xmlns="http://www.w3.org/2000/svg">
<g clip-path="url(#clip0_2986_161)">
<path d="M49 98C76.062 98 98 76.062 98 49C98 21.938 76.062 0 49 0C21.938 0 0 21.938 0 49C0 76.062 21.938 98 49 98Z" fill="#F2F2F2"/>
<path d="M47.1083 29.2187C44.3912 30.0106 42.332 32.1186 41.6374 34.7992C41.3938 35.7374 41.3938 37.6991 41.6253 38.7226C42.2589 41.391 44.6348 43.767 47.3033 44.4006C48.3024 44.6321 50.1788 44.6321 51.1779 44.4006C53.8464 43.767 56.2223 41.391 56.8559 38.7226C57.0874 37.6991 57.0874 35.7374 56.8437 34.7992C56.137 32.0577 53.8707 29.8035 51.1658 29.1699C50.1057 28.9262 48.0343 28.9506 47.1083 29.2187ZM50.9342 31.29C52.2745 31.7043 53.5417 32.74 54.2606 33.9828C55.2598 35.7008 55.1988 38.1377 54.1266 39.8192C53.6514 40.5503 52.6035 41.5494 51.9699 41.8784C50.3007 42.7191 48.1684 42.7191 46.4991 41.8784C45.8289 41.525 44.6714 40.3919 44.2571 39.6608C43.2945 37.9793 43.258 35.7983 44.1475 34.0437C44.4764 33.4101 45.634 32.2039 46.2919 31.8261C47.5957 31.0585 49.4843 30.8392 50.9342 31.29Z" fill="black"/>
<path d="M30.5061 33.2021C28.3859 33.921 26.9238 35.3588 26.1927 37.4423C25.9003 38.283 25.8516 38.6242 25.8516 39.7086C25.8516 41.7069 26.4608 43.2056 27.8133 44.5703C30.043 46.8122 33.735 47.2021 36.3912 45.4963C37.2319 44.9602 37.9264 44.2657 38.4626 43.4249C39.8638 41.2439 39.8638 38.1734 38.4626 35.9802C37.5975 34.6399 36.245 33.6164 34.6975 33.1412C33.4669 32.7635 31.7001 32.7878 30.5061 33.2021ZM34.7585 35.4075C35.7332 35.8827 36.5861 36.76 37.037 37.7347C37.3294 38.344 37.366 38.5755 37.366 39.7086C37.366 40.8418 37.3294 41.0733 37.037 41.6825C35.3311 45.3379 30.1527 45.411 28.3738 41.7922C28.0082 41.0489 27.9839 40.9149 27.9839 39.7086C27.9839 38.5755 28.0204 38.344 28.3128 37.7347C28.8855 36.5163 29.9821 35.5415 31.2493 35.1273C31.5661 35.0298 32.1875 34.9689 32.8577 34.9932C33.8203 35.0176 34.0639 35.0663 34.7585 35.4075Z" fill="black"/>
<path d="M63.6467 33.2021C61.5266 33.921 60.0644 35.3588 59.3334 37.4423C59.0409 38.283 58.9922 38.6242 58.9922 39.7086C58.9922 41.7069 59.6014 43.2056 60.9539 44.5703C63.1837 46.8122 66.8756 47.2021 69.5318 45.4963C70.8721 44.6434 71.8103 43.4249 72.3343 41.8653C72.7729 40.5616 72.7729 38.8557 72.3343 37.552C71.6032 35.3831 69.9948 33.7991 67.8382 33.1412C66.6075 32.7635 64.8408 32.7878 63.6467 33.2021ZM67.8991 35.4075C68.8738 35.8827 69.7268 36.76 70.1776 37.7347C70.47 38.344 70.5066 38.5755 70.5066 39.7086C70.5066 40.8418 70.47 41.0733 70.1776 41.6825C68.4718 45.3379 63.2933 45.411 61.5144 41.7922C61.1489 41.0489 61.1245 40.9149 61.1245 39.7086C61.1245 38.5755 61.161 38.344 61.4535 37.7347C62.0261 36.5163 63.1227 35.5415 64.3899 35.1273C64.7067 35.0298 65.3281 34.9689 65.9983 34.9932C66.9609 35.0176 67.2046 35.0663 67.8991 35.4075Z" fill="black"/>
<path d="M41.8591 45.8141C40.9087 46.0456 39.2881 46.7766 38.6789 47.2397C38.3621 47.4833 38.1915 47.8299 37.497 47.8299C36.6806 47.8299 36.7515 47.8299 35.0186 47.8299C33.8633 47.8299 32.7328 47.8254 32.6841 47.8254C32.6232 47.8254 31.5527 47.8299 30.3975 47.8299C29.2422 47.8299 28.9398 47.8299 28.0869 47.8299C26.9781 47.8299 25.7877 47.7758 24.5692 48.385C22.8634 49.2257 21.6937 50.3955 20.8529 52.1013C20.0366 53.7462 20 54.0264 20 58.5835C20 62.4825 20.0122 62.6531 20.2437 62.8846C20.4874 63.1283 20.6458 63.1283 27.5544 63.1283H34.6214V64.8341C34.6214 66.3816 34.6458 66.5643 34.8651 66.7837C35.1088 67.0273 35.2672 67.0273 49.2429 67.0273C63.2186 67.0273 63.377 67.0273 63.6206 66.7837C63.84 66.5643 63.8643 66.3816 63.8643 64.8341V63.1283H70.9314C77.84 63.1283 77.9984 63.1283 78.2421 62.8846C78.4736 62.6531 78.4858 62.4825 78.4858 58.5835C78.4858 54.0995 78.4492 53.7828 77.706 52.2231C76.3779 49.4329 73.7198 47.8489 70.8321 47.8489C69.9792 47.8489 69.6768 47.8299 67.9439 47.8985C66.7886 47.8299 66.077 47.8985 66.0282 47.8985C65.9673 47.8985 65.0557 47.8299 63.9004 47.8299C62.1675 47.8299 61.8295 47.788 61.0375 47.788C60.2943 47.788 60.1724 47.4955 59.5023 47.0325C58.1132 46.1187 56.4074 45.5947 54.7869 45.5826H53.9339L51.6432 45.5947C50.3047 45.8141 49.3647 45.8141 49.3038 45.8141C49.2429 45.8141 48.5908 45.8141 46.8547 45.8141L44.564 45.5826L43.6502 45.5947C43.1384 45.5947 42.3343 45.6922 41.8591 45.8141ZM46.5713 47.8299C48.1706 47.8299 49.0818 47.8489 49.4595 47.8489C49.825 47.8489 50.0371 47.8299 52.1794 47.788C54.6582 47.8299 54.7869 47.788 56.2368 47.8489C58.2351 48.3606 60.1602 49.9446 61.0375 51.7967C61.3056 52.3693 61.598 53.1004 61.6711 53.4416C61.7808 53.8559 61.8417 55.8419 61.8783 59.5582L61.9392 65.0778H49.2429H36.5466L36.6075 59.5095C36.6684 53.3319 36.6563 53.3928 37.497 51.6748C38.5327 49.5547 40.8808 47.8299 43.1055 47.8299C44.0232 47.8299 44.2608 47.8299 46.5713 47.8299ZM30.3975 50.1405C31.5527 50.1405 32.5257 50.1405 32.6841 50.1405C32.8303 50.1405 33.8633 50.1405 34.4409 50.1405C35.4865 50.1405 36.1251 50.1405 36.1738 50.1405C36.2104 50.1405 35.6206 50.7854 35.4865 51.029C35.3647 51.2849 35.1332 51.8698 34.9748 52.345C34.7067 53.1492 34.6946 53.405 34.6458 57.1822L34.6093 61.1788H28.2611H21.913L21.9861 57.9742C22.047 54.5016 22.1201 54.0386 22.8146 52.8202C23.5944 51.4433 24.8797 50.6644 26.354 50.1405C28.0869 50.1405 28.0869 50.1405 30.3975 50.1405ZM73.1426 50.1405C75.4532 50.7181 75.4884 51.9794 76.1829 53.9899C76.4266 54.7088 76.451 55.0743 76.5119 57.9742L76.5728 61.1788H70.2125H63.8643V57.4259C63.8643 53.3319 63.779 52.6374 63.0723 51.1022L62.7452 50.1405H63.3228C65.0557 50.1405 65.6333 50.1405 66.211 50.1405C66.3694 50.0917 67.3663 50.1405 68.5215 50.1405C70.8321 50.1405 71.4097 50.1405 73.1426 50.1405Z" fill="black"/>
</g>
<defs>
<clipPath id="clip0_2986_161">
<rect width="98" height="98" fill="white"/>
</clipPath>
</defs>
</svg>
