<svg width="98" height="98" viewBox="0 0 98 98" fill="none" xmlns="http://www.w3.org/2000/svg">
<g clip-path="url(#clip0_3000_187)">
<path d="M49 98C76.062 98 98 76.062 98 49C98 21.938 76.062 0 49 0C21.938 0 0 21.938 0 49C0 76.062 21.938 98 49 98Z" fill="#F2F2F2"/>
<path d="M33.2422 29.0156H28.2422C26.5853 29.0156 25.2422 30.3588 25.2422 32.0156V71.0156C25.2422 72.6725 26.5853 74.0156 28.2422 74.0156H70.26C71.9099 74.0156 73.2501 72.6833 73.2599 71.0335L73.4922 32.0335C73.5021 30.3697 72.1561 29.0156 70.4922 29.0156H65.5101" stroke="black" stroke-width="2"/>
<path d="M40.2422 29.0156H58.7422" stroke="black" stroke-width="2"/>
<rect x="33.2422" y="22.0156" width="7" height="12" rx="2" stroke="black" stroke-width="2"/>
<rect x="58.2422" y="22.0156" width="7" height="12" rx="2" stroke="black" stroke-width="2"/>
<path d="M24.7422 42.0156H73.7422" stroke="black" stroke-width="2"/>
<path d="M49.0285 48.3349C49.1856 47.8903 49.8144 47.8903 49.9715 48.3349L52.1886 54.6128C52.2592 54.8127 52.4482 54.9463 52.6601 54.9463H59.7404C60.2348 54.9463 60.4293 55.5873 60.0183 55.862L54.3639 59.6415C54.1739 59.7685 54.0942 60.0082 54.1703 60.2237L56.3466 66.386C56.5067 66.8394 55.9971 67.2354 55.5973 66.9682L49.7779 63.0783C49.6097 62.9659 49.3903 62.9659 49.2221 63.0783L43.4027 66.9682C43.0029 67.2354 42.4933 66.8394 42.6534 66.386L44.8297 60.2237C44.9058 60.0082 44.8261 59.7685 44.6361 59.6415L38.9817 55.862C38.5707 55.5873 38.7652 54.9463 39.2596 54.9463H46.3399C46.5518 54.9463 46.7408 54.8127 46.8114 54.6128L49.0285 48.3349Z" stroke="black" stroke-width="2"/>
</g>
<defs>
<clipPath id="clip0_3000_187">
<rect width="98" height="98" fill="white"/>
</clipPath>
</defs>
</svg>
